#define fnt_terminus_24x14_width 24
#define fnt_terminus_24x14_height 280
static unsigned char fnt_terminus_24x14_bits[] = {
   0x00, 0x00, 0x00, 0x80, 0xff, 0x1f, 0xc0, 0xff, 0x3f, 0x60, 0x80, 0x63,
   0x60, 0xc0, 0x61, 0x60, 0xe0, 0x60, 0x60, 0x70, 0x60, 0x60, 0x38, 0x60,
   0x60, 0x1c, 0x60, 0x60, 0x0e, 0x60, 0xc0, 0xff, 0x3f, 0x80, 0xff, 0x1f,
   0x00, 0x00, 0x00, 0x00, 0x00, 0x00, 0x00, 0x00, 0x00, 0x00, 0x00, 0x00,
   0x00, 0x00, 0x00, 0x00, 0x01, 0x60, 0x80, 0x01, 0x60, 0xc0, 0x01, 0x60,
   0xe0, 0xff, 0x7f, 0xe0, 0xff, 0x7f, 0x00, 0x00, 0x60, 0x00, 0x00, 0x60,
   0x00, 0x00, 0x60, 0x00, 0x00, 0x00, 0x00, 0x00, 0x00, 0x00, 0x00, 0x00,
   0x00, 0x00, 0x00, 0x80, 0x07, 0x70, 0xc0, 0x07, 0x78, 0x60, 0x00, 0x7c,
   0x60, 0x00, 0x6e, 0x60, 0x00, 0x67, 0x60, 0x80, 0x63, 0x60, 0xc0, 0x61,
   0x60, 0xe0, 0x60, 0x60, 0x70, 0x60, 0xc0, 0x3f, 0x60, 0x80, 0x1f, 0x60,
   0x00, 0x00, 0x00, 0x00, 0x00, 0x00, 0x00, 0x00, 0x00, 0x80, 0x01, 0x18,
   0xc0, 0x01, 0x38, 0x60, 0x00, 0x60, 0x60, 0x60, 0x60, 0x60, 0x60, 0x60,
   0x60, 0x60, 0x60, 0x60, 0x60, 0x60, 0x60, 0x60, 0x60, 0x60, 0x60, 0x60,
   0xc0, 0xff, 0x3f, 0x80, 0x9f, 0x1f, 0x00, 0x00, 0x00, 0x00, 0x00, 0x00,
   0x00, 0x00, 0x00, 0x00, 0xc0, 0x07, 0x00, 0xe0, 0x07, 0x00, 0x70, 0x06,
   0x00, 0x38, 0x06, 0x00, 0x1c, 0x06, 0x00, 0x0e, 0x06, 0x00, 0x07, 0x06,
   0x80, 0x03, 0x06, 0xc0, 0x01, 0x06, 0xe0, 0xff, 0x7f, 0xe0, 0xff, 0x7f,
   0x00, 0x00, 0x00, 0x00, 0x00, 0x00, 0x00, 0x00, 0x00, 0xe0, 0x3f, 0x18,
   0xe0, 0x3f, 0x38, 0x60, 0x30, 0x60, 0x60, 0x30, 0x60, 0x60, 0x30, 0x60,
   0x60, 0x30, 0x60, 0x60, 0x30, 0x60, 0x60, 0x30, 0x60, 0x60, 0x30, 0x60,
   0x60, 0xe0, 0x3f, 0x60, 0xc0, 0x1f, 0x00, 0x00, 0x00, 0x00, 0x00, 0x00,
   0x00, 0x00, 0x00, 0x80, 0xff, 0x1f, 0xc0, 0xff, 0x3f, 0x60, 0x30, 0x60,
   0x60, 0x30, 0x60, 0x60, 0x30, 0x60, 0x60, 0x30, 0x60, 0x60, 0x30, 0x60,
   0x60, 0x30, 0x60, 0x60, 0x30, 0x60, 0x60, 0xe0, 0x3f, 0x00, 0xc0, 0x1f,
   0x00, 0x00, 0x00, 0x00, 0x00, 0x00, 0x00, 0x00, 0x00, 0xe0, 0x03, 0x00,
   0xe0, 0x03, 0x00, 0x60, 0x00, 0x00, 0x60, 0x00, 0x00, 0x60, 0x00, 0x00,
   0x60, 0x00, 0x7f, 0x60, 0xc0, 0x7f, 0x60, 0xf0, 0x00, 0x60, 0x3c, 0x00,
   0xe0, 0x0f, 0x00, 0xe0, 0x03, 0x00, 0x00, 0x00, 0x00, 0x00, 0x00, 0x00,
   0x00, 0x00, 0x00, 0x80, 0x9f, 0x1f, 0xc0, 0xff, 0x3f, 0x60, 0x60, 0x60,
   0x60, 0x60, 0x60, 0x60, 0x60, 0x60, 0x60, 0x60, 0x60, 0x60, 0x60, 0x60,
   0x60, 0x60, 0x60, 0x60, 0x60, 0x60, 0xc0, 0xff, 0x3f, 0x80, 0x9f, 0x1f,
   0x00, 0x00, 0x00, 0x00, 0x00, 0x00, 0x00, 0x00, 0x00, 0x80, 0x3f, 0x00,
   0xc0, 0x7f, 0x60, 0x60, 0xc0, 0x60, 0x60, 0xc0, 0x60, 0x60, 0xc0, 0x60,
   0x60, 0xc0, 0x60, 0x60, 0xc0, 0x60, 0x60, 0xc0, 0x60, 0x60, 0xc0, 0x60,
   0xc0, 0xff, 0x3f, 0x80, 0xff, 0x1f, 0x00, 0x00, 0x00, 0x00, 0x00, 0x00,
   0x00, 0x00, 0x00, 0x00, 0x60, 0x00, 0x00, 0x62, 0x04, 0x00, 0x66, 0x06,
   0x00, 0x6e, 0x07, 0x00, 0xfc, 0x03, 0x00, 0xf8, 0x01, 0x00, 0xfc, 0x03,
   0x00, 0x6e, 0x07, 0x00, 0x66, 0x06, 0x00, 0x62, 0x04, 0x00, 0x60, 0x00,
   0x00, 0x00, 0x00, 0x00, 0x00, 0x00, 0x00, 0x00, 0x00, 0x00, 0x06, 0x06,
   0x00, 0x06, 0x06, 0xe0, 0xff, 0x7f, 0xe0, 0xff, 0x7f, 0x00, 0x06, 0x06,
   0x00, 0x06, 0x06, 0x00, 0x06, 0x06, 0xe0, 0xff, 0x7f, 0xe0, 0xff, 0x7f,
   0x00, 0x06, 0x06, 0x00, 0x06, 0x06, 0x00, 0x00, 0x00, 0x00, 0x00, 0x00,
   0x00, 0x00, 0x00, 0x00, 0x00, 0x00, 0x00, 0x00, 0x00, 0x00, 0x00, 0x00,
   0x00, 0x00, 0x00, 0x00, 0x00, 0x00, 0x00, 0x3c, 0x78, 0x00, 0x3c, 0x78,
   0x00, 0x00, 0x00, 0x00, 0x00, 0x00, 0x00, 0x00, 0x00, 0x00, 0x00, 0x00,
   0x00, 0x00, 0x00, 0x00, 0x00, 0x00, 0x00, 0x00, 0x00, 0x00, 0x60, 0x00,
   0x00, 0x60, 0x00, 0x00, 0x60, 0x00, 0x00, 0x60, 0x00, 0x00, 0x60, 0x00,
   0x00, 0xff, 0x0f, 0x00, 0xff, 0x0f, 0x00, 0x60, 0x00, 0x00, 0x60, 0x00,
   0x00, 0x60, 0x00, 0x00, 0x60, 0x00, 0x00, 0x60, 0x00, 0x00, 0x00, 0x00,
   0x00, 0x00, 0x00, 0x00, 0x60, 0x00, 0x00, 0x60, 0x00, 0x00, 0x60, 0x00,
   0x00, 0x60, 0x00, 0x00, 0x60, 0x00, 0x00, 0x60, 0x00, 0x00, 0x60, 0x00,
   0x00, 0x60, 0x00, 0x00, 0x60, 0x00, 0x00, 0x60, 0x00, 0x00, 0x60, 0x00,
   0x00, 0x00, 0x00, 0x00, 0x00, 0x00, 0x00, 0x00, 0x00, 0x80, 0xff, 0x7f,
   0xc0, 0xff, 0x7f, 0x60, 0xc0, 0x00, 0x60, 0xc0, 0x00, 0x60, 0xc0, 0x00,
   0x60, 0xc0, 0x00, 0x60, 0xc0, 0x00, 0x60, 0xc0, 0x00, 0x60, 0xc0, 0x00,
   0xc0, 0xff, 0x7f, 0x80, 0xff, 0x7f, 0x00, 0x00, 0x00, 0x00, 0x00, 0x00,
   0x00, 0x00, 0x00, 0xe0, 0xff, 0x7f, 0xe0, 0xff, 0x7f, 0x60, 0x30, 0x60,
   0x60, 0x30, 0x60, 0x60, 0x30, 0x60, 0x60, 0x30, 0x60, 0x60, 0x30, 0x60,
   0x60, 0x30, 0x60, 0x60, 0x78, 0x60, 0xc0, 0xcf, 0x3f, 0x80, 0x87, 0x1f,
   0x00, 0x00, 0x00, 0x00, 0x00, 0x00, 0x00, 0x00, 0x00, 0x80, 0xff, 0x1f,
   0xc0, 0xff, 0x3f, 0x60, 0x00, 0x60, 0x60, 0x00, 0x60, 0x60, 0x00, 0x60,
   0x60, 0x00, 0x60, 0x60, 0x00, 0x60, 0x60, 0x00, 0x60, 0x60, 0x00, 0x60,
   0xc0, 0x03, 0x3c, 0x80, 0x03, 0x1c, 0x00, 0x00, 0x00, 0x00, 0x00, 0x00,
   0x00, 0x00, 0x00, 0xe0, 0xff, 0x7f, 0xe0, 0xff, 0x7f, 0x60, 0x00, 0x60,
   0x60, 0x00, 0x60, 0x60, 0x00, 0x60, 0x60, 0x00, 0x60, 0x60, 0x00, 0x60,
   0xc0, 0x00, 0x30, 0xc0, 0x01, 0x38, 0x80, 0xff, 0x1f, 0x00, 0xfe, 0x07,
   0x00, 0x00, 0x00, 0x00, 0x00, 0x00, 0x00, 0x00, 0x00, 0x00, 0x00, 0x00,
   0x00, 0x00, 0x00, 0xf0, 0x01, 0x00, 0xf8, 0x03, 0x00, 0x18, 0x03, 0x00,
   0x18, 0x03, 0x00, 0x18, 0x03, 0x00, 0xf8, 0x03, 0x00, 0xf0, 0x01, 0x00,
   0x00, 0x00, 0x00, 0x00, 0x00, 0x00, 0x00, 0x00, 0x00, 0x00, 0x00, 0x00 };
